<svg id="svg" version="1.1" xmlns="http://www.w3.org/2000/svg" xmlns:xlink="http://www.w3.org/1999/xlink" viewBox="0, 0, 400,400"><g><path id="path0" d="M78.324 23.125 L 66.914 34.655 47.648 35.202 L 28.383 35.749 27.617 55.072 L 26.851 74.396 13.425 87.968 C -4.033 105.617,-5.922 116.534,8.072 118.898 C 17.165 120.435,18.205 119.587,26.090 104.226 C 33.358 90.068,36.024 88.824,42.180 96.722 C 45.020 100.366,54.734 111.709,63.768 121.928 C 85.110 146.071,100.536 163.876,105.107 169.644 L 108.765 174.259 88.789 194.303 L 68.813 214.347 72.094 224.755 C 78.456 244.937,77.991 245.182,129.541 194.487 C 154.557 169.886,177.480 148.123,180.482 146.124 L 185.939 142.489 171.485 133.268 C 161.336 126.794,156.440 122.352,155.046 118.354 C 153.955 115.223,147.629 107.965,140.988 102.224 C 134.348 96.484,120.526 84.396,110.273 75.362 C 100.021 66.329,88.638 56.663,84.978 53.883 C 77.025 47.842,78.364 45.009,92.632 37.685 C 107.993 29.799,108.840 28.759,107.304 19.666 C 105.038 6.251,93.681 7.606,78.324 23.125 M292.696 19.666 C 291.160 28.759,292.007 29.799,307.368 37.685 C 321.526 44.953,322.770 47.619,314.872 53.774 C 311.228 56.614,299.886 66.329,289.666 75.362 C 265.523 96.704,247.718 112.130,241.951 116.701 L 237.335 120.359 217.291 100.383 L 197.247 80.408 186.769 83.711 C 164.533 90.720,164.908 107.034,187.631 121.260 C 210.471 135.560,278.577 204.187,292.341 226.772 L 301.591 241.949 308.456 240.662 C 321.426 238.228,324.435 235.766,327.911 224.738 L 331.187 214.347 311.211 194.303 L 291.235 174.259 294.893 169.644 C 299.275 164.114,313.899 147.214,336.232 121.868 C 345.266 111.615,354.932 100.232,357.712 96.572 C 363.752 88.619,366.585 89.958,373.910 104.226 C 381.795 119.587,382.835 120.435,391.928 118.898 C 405.344 116.632,403.988 105.275,388.469 89.918 L 376.939 78.508 376.392 59.243 L 375.845 39.977 356.522 39.211 L 337.198 38.445 323.626 25.020 C 305.977 7.562,295.060 5.672,292.696 19.666 M93.821 77.295 C 132.208 111.159,148.792 126.309,148.792 127.514 C 148.792 128.172,145.868 131.545,142.293 135.010 L 135.794 141.309 117.655 120.697 C 107.679 109.360,92.257 91.895,83.384 81.884 C 72.661 69.785,67.640 62.672,68.410 60.666 C 70.033 56.435,70.584 56.796,93.821 77.295 M352.707 81.241 C 353.392 82.348,348.008 89.879,340.744 97.975 C 333.480 106.072,322.169 118.861,315.610 126.396 C 309.050 133.932,299.330 144.879,294.009 150.725 L 284.334 161.353 277.276 154.400 L 270.218 147.448 290.868 129.280 C 302.226 119.287,319.470 103.980,329.189 95.264 C 346.750 79.515,350.324 77.384,352.707 81.241 M123.272 227.536 C 67.622 283.276,57.749 294.017,55.332 301.449 C 53.777 306.232,48.449 323.188,43.491 339.130 C 38.534 355.072,33.149 371.748,31.524 376.187 C 26.910 388.790,27.228 388.764,77.295 372.534 L 124.638 357.187 153.184 328.835 C 177.536 304.650,181.904 299.408,182.911 293.167 C 184.155 285.457,187.969 282.126,195.551 282.126 C 198.763 282.126,207.764 274.399,226.988 255.137 L 253.925 228.149 249.407 219.872 C 244.538 210.952,226.540 191.304,223.237 191.304 C 219.336 191.304,141.863 271.367,138.509 278.864 C 136.090 284.272,133.037 287.196,127.027 289.863 C 116.516 294.527,104.768 306.596,103.224 314.317 C 102.279 319.041,98.966 322.472,87.871 330.219 C 70.967 342.021,71.306 341.958,73.770 332.850 C 81.941 302.646,77.881 307.881,146.359 239.259 C 210.304 175.179,214.282 170.244,202.179 170.005 C 200.980 169.982,197.826 168.262,195.169 166.184 C 192.512 164.105,189.899 162.385,189.361 162.362 C 188.824 162.338,159.084 191.667,123.272 227.536 M267.835 231.087 C 267.193 232.762,266.667 235.553,266.667 237.290 C 266.667 239.026,262.586 244.590,257.598 249.654 L 248.530 258.861 253.198 263.830 C 255.766 266.563,261.620 270.460,266.207 272.489 C 272.686 275.355,275.367 278.027,278.224 284.466 C 282.928 295.067,294.974 306.821,302.723 308.371 C 307.446 309.315,310.878 312.628,318.624 323.723 C 330.427 340.628,330.364 340.289,321.256 337.825 C 292.885 330.149,292.449 329.869,262.750 300.328 L 234.678 272.406 226.086 281.160 L 217.495 289.914 249.199 321.662 C 275.378 347.878,282.441 353.903,289.727 356.235 C 294.580 357.788,311.594 363.122,327.536 368.088 C 343.478 373.053,360.154 378.446,364.592 380.071 C 377.196 384.685,377.170 384.366,360.933 334.300 L 345.580 286.957 330.806 271.981 L 316.033 257.005 304.749 257.005 C 290.186 257.005,287.708 255.507,279.260 241.600 C 271.267 228.442,269.481 226.799,267.835 231.087 " stroke="none" fill="#FFFFFF" fill-rule="evenodd"></path></g></svg>