<svg id="svg" version="1.1" xmlns="http://www.w3.org/2000/svg" xmlns:xlink="http://www.w3.org/1999/xlink" width="400" height="400" viewBox="0, 0, 400,400"><g id="svgg"><path id="path0" d="M99.783 74.780 C 58.123 101.455,51.870 172.599,87.601 213.381 C 104.376 232.528,92.014 246.914,58.785 246.914 C 15.878 246.914,0.000 262.817,0.000 305.793 L 0.000 335.802 133.333 335.802 L 266.667 335.802 266.667 305.793 C 266.667 262.817,250.789 246.914,207.881 246.914 C 173.746 246.914,159.763 229.842,181.453 214.650 C 255.063 163.092,175.273 26.442,99.783 74.780 M230.411 76.969 C 216.686 86.295,212.544 91.957,215.058 97.957 C 226.564 125.425,226.490 183.579,214.925 202.292 C 213.566 204.490,215.763 209.034,219.807 212.391 C 223.852 215.747,227.160 221.555,227.160 225.296 C 227.160 229.038,231.827 232.099,237.531 232.099 C 262.035 232.099,281.481 262.471,281.481 300.741 L 281.481 335.802 340.741 335.802 L 400.000 335.802 400.000 305.793 C 400.000 262.817,384.122 246.914,341.215 246.914 C 307.080 246.914,293.096 229.842,314.786 214.650 C 340.126 196.901,349.226 136.802,331.597 103.627 C 310.827 64.541,266.057 52.747,230.411 76.969 " stroke="none" fill="#000000" fill-rule="evenodd"></path></g></svg>