<svg id="svg" version="1.1" xmlns="http://www.w3.org/2000/svg" xmlns:xlink="http://www.w3.org/1999/xlink" width="400" height="400" viewBox="0, 0, 400,400"><g id="svgg"><path id="path0" d="M155.789 105.263 C 155.789 107.579,152.947 109.474,149.474 109.474 C 137.180 109.474,140.718 182.999,153.684 196.983 C 172.883 217.687,165.262 231.689,131.670 237.430 C 110.996 240.963,92.632 260.708,92.632 279.403 L 92.632 294.737 197.895 294.737 L 303.158 294.737 303.158 280.445 C 303.158 260.924,283.809 240.383,262.304 237.077 C 229.576 232.044,219.895 212.059,242.105 195.380 C 255.097 185.624,258.829 109.474,246.316 109.474 C 242.842 109.474,240.000 107.579,240.000 105.263 C 240.000 102.737,223.158 101.053,197.895 101.053 C 172.632 101.053,155.789 102.737,155.789 105.263 M47.277 127.285 C 42.016 129.820,36.600 136.324,35.241 141.737 C 33.883 147.150,31.082 151.579,29.017 151.579 C 26.952 151.579,25.263 159.158,25.263 168.421 C 25.263 177.684,27.158 185.263,29.474 185.263 C 31.789 185.263,33.684 187.423,33.684 190.062 C 33.684 192.702,36.806 197.144,40.621 199.933 C 53.196 209.129,44.766 227.368,27.941 227.368 C 10.543 227.368,-0.000 238.279,0.000 256.285 L 0.000 269.802 36.795 268.585 C 69.646 267.499,73.761 266.472,75.189 259.008 C 76.069 254.409,80.501 247.428,85.038 243.493 C 89.575 239.558,93.787 230.038,94.398 222.337 C 95.526 208.125,104.656 189.474,110.487 189.474 C 112.245 189.474,113.684 178.917,113.684 166.015 C 113.684 143.274,107.742 130.526,97.143 130.526 C 94.662 130.526,92.632 128.632,92.632 126.316 C 92.632 120.730,59.405 121.440,47.277 127.285 M303.158 126.316 C 303.158 128.632,301.128 130.526,298.647 130.526 C 279.393 130.526,275.089 178.630,292.762 196.303 C 301.344 204.884,302.922 209.605,300.869 220.549 C 298.748 231.855,300.142 235.507,309.160 242.279 C 315.214 246.826,320.000 254.626,320.000 259.947 C 320.000 269.174,321.259 269.474,360.000 269.474 L 400.000 269.474 400.000 256.464 C 400.000 240.148,386.005 227.700,367.449 227.509 C 347.968 227.308,343.483 209.626,359.435 195.919 C 380.629 177.708,373.523 141.440,345.859 126.635 C 335.192 120.926,303.158 120.687,303.158 126.316 " stroke="none" fill="#FFFFFF" fill-rule="evenodd"></path></g></svg>