<?xml version="1.0" encoding="utf-8"?>
<svg xmlns="http://www.w3.org/2000/svg" width="161" height="64" viewBox="0 0 161 64" fill="none">
<path d="M56.7445 43.7146L60.483 29.8244L57.0166 25.1256H41.5602L44.502 29.1509H48.3036L44.3266 32.2729L37.5438 57.479L42.3154 63.9548L47.8185 43.4946L51.1882 48.0776L56.7445 43.7126V43.7146ZM53.4892 31.621L50.9575 41.0284L47.8146 43.4966L51.6792 29.1548L53.4892 31.6171V31.623V31.621ZM42.5047 29.8578L33.3263 63.9686L29.9861 59.4662L24.2622 63.9627L19.5872 57.6106L25.81 34.48L29.7239 31.8979L27.1863 29.3708L28.7952 23.3938L33.5392 29.7753L26.79 54.8754L28.6 57.3396L37.7331 23.3938L42.5047 29.8578ZM90.0117 54.8872L96.684 64H87.478L82.6117 57.3534L85.6403 46.1003L83.8046 43.6046L86.9574 41.1286L89.5128 31.6387L87.685 29.1509L78.3212 63.9627L73.5477 57.4948L80.2989 32.3554L84.3804 29.1489H80.5749L77.5601 25.0942L93.2177 25.0844L96.6761 29.789L95.4122 34.4898L89.6429 39.0197L93.0126 43.6026L90.0117 54.8832V54.8872ZM74.4251 45.0026L66.1714 51.4843L64.5901 57.3593L62.7603 54.8715L65.8086 43.5378H69.1684L76.3357 37.9103L78.5086 29.8421L75.0363 25.1354H68.9772L62.9871 29.8401L55.5201 57.5929L60.2365 63.9372L71.7554 54.9323L74.4271 45.0026H74.4251ZM69.6831 29.1529L71.5109 31.6407L70.0774 36.9737L66.9384 39.4399L69.6831 29.1529ZM151.66 43.5398L158.827 37.9123L161 29.844L157.528 25.1374H151.469L145.479 29.8421L138.012 57.5949L142.728 63.9391L154.247 54.9343L156.919 45.0046L148.665 51.4863L147.084 57.3612L145.254 54.8734L148.302 43.5398H151.662H151.66ZM152.176 29.1529L154.004 31.6407L152.571 36.9737L149.432 39.4399L152.176 29.1529ZM117.557 55.1365L119.223 57.4025L110.902 63.9627L110.888 63.9686L109.266 61.7596L114.678 41.6764L113.012 39.4104L121.346 32.8443L122.969 35.0533L117.557 55.1365ZM25.528 31.6034L16.1268 37.8082L17.4715 31.3265L15.5412 28.9094L13.6069 38.2304L20.2458 45.1852L16.9668 57.4732L9.76994 63.8056L3.79756 57.7971L0 43.7715L9.58066 52.3718L8.9221 54.8086L10.7144 57.2257L13.1377 48.6097L6.51067 41.5821L9.24546 29.0017L16.9865 22.9618L25.528 31.6034ZM116.522 23.3938L113.168 35.823L109.106 39.0236L111.448 42.2105L107.166 58.1584L99.7402 63.9607L92.6557 54.3099L99.2413 29.7596L107.446 23.3427L98.3304 57.3593L101.552 54.8283L108.276 29.8401L116.522 23.3918V23.3938ZM158.886 14.114C158.886 14.114 158.167 14.2691 150.593 16.7255C144.865 18.5831 143.122 16.7196 142.694 16.0304C141.391 13.3325 139.451 10.9959 137.071 9.21102L137.077 9.21495C137.077 9.21495 135.403 7.89544 138.313 4.0135C141.224 0.131563 141.156 0.0530207 141.156 0.0530207L141.091 4.83571e-06C141.091 4.83571e-06 140.997 -0.0255211 137.741 3.63257C134.488 7.29067 132.112 6.55238 132.112 6.55238C130.162 5.86317 128.064 5.48617 125.877 5.48617C116.5 5.48617 108.682 12.5824 107.383 21.5677L107.4 21.5716C107.493 21.4263 107.846 20.8726 108.339 20.3601C109.398 19.2546 111.133 17.511 113.116 16.8689C114.11 16.5469 112.276 20.9275 112.054 21.4538C112.054 21.4538 122.587 17.1438 124.606 19.3881C126.816 21.8465 117.918 31.354 117.269 32.0412C117.259 32.053 117.251 32.0648 117.241 32.0766L117.253 32.0962C118.142 31.3422 125.42 25.2709 129.945 24.8016C133.305 24.4541 133.506 24.8919 131.367 26.6611L127.299 29.7832L120.714 54.3158L127.798 63.9666L135.224 58.1643L144.504 23.755C144.504 23.755 145.049 21.5735 146.445 20.311C147.841 19.0484 150.183 18.045 150.183 18.045C150.392 17.9508 158.92 14.22 158.92 14.22L158.882 14.1199L158.886 14.114ZM129.612 54.8302L126.39 57.3612C126.39 57.3612 134.597 26.9007 134.616 26.828C135.058 25.2415 135.614 24.3932 135.807 24.1281C136.42 23.3506 137.361 22.4905 138.449 21.8916L138.435 21.874C137.773 22.0919 137.016 22.2785 136.148 22.4257C131.952 23.1385 129.699 23.2386 129.707 22.1548C129.72 20.4779 130.742 19.0013 131.004 18.6871L130.974 18.6439C130.383 18.7676 126.733 19.3645 126.404 15.459C126.278 13.9648 126.528 12.8181 127.139 12.011C119.538 15.1213 113.872 16.109 113.416 14.0767C113.148 13.2913 113.631 12.1151 114.668 10.7779C117.34 7.33191 121.35 6.64466 121.991 6.55434C122.041 6.54845 122.088 6.57986 122.094 6.62895C122.18 7.26122 121.674 8.18605 121.534 8.42953L121.563 8.46095C126.719 5.99473 132.037 7.78745 133.033 8.50218C133.039 8.50611 133.041 8.51004 133.045 8.51396C133.1 8.54734 133.143 8.59643 133.155 8.66319C133.173 8.73977 133.141 8.8242 133.068 8.91453C132.844 9.23066 132.13 9.751 130.351 10.6051C131.424 10.5521 132.706 10.7033 134.204 11.0685C139.688 12.4057 142.198 16.7295 142.127 18.3278C142.079 19.3979 141.291 20.6428 139.516 21.4577L139.524 21.4734C139.701 21.4322 139.883 21.4047 140.064 21.3968C142.395 21.3006 143.152 22.5769 143.256 24.0142C143.266 24.1576 143.17 24.4246 143.028 24.5758L143.002 24.5974C142.974 24.6269 142.945 24.6544 142.913 24.6779L136.332 29.846L129.608 54.8341L129.612 54.8302Z" fill="white"/>
</svg>